# xmcd
#
# Track frame offsets:
#	150
#	9087
#	22695
#	33912
#	45845
#	59017
#	71827
#	87357
#	96667
#	107592
#	124500
#	137392
#	147165
#	159315
#	171450
#	182355
#
# Disc length: 2584 seconds
#
# Revision: 8
# Processed by: cddbd v1.5.2PL0 Copyright (c) Steve Scherf et al.
# Submitted via: EZCDAudioConverter 7.2.0.1
#
DISCID=c40a1610
DTITLE=Patsy Cline - Gold
DYEAR=2000
DGENRE=Country
TTITLE0=Anytime
TTITLE1=So Wrong
TTITLE2=Half As Much
TTITLE3=When I Get Thru with You (You'll Love Me Too)
TTITLE4=Imagine That
TTITLE5=When You Need a Laugh
TTITLE6=Why Can't He Be You
TTITLE7=Back in Baby's Arms
TTITLE8=Leavin' on Your Mind
TTITLE9=Faded Love
TTITLE10=Someday (You'll Want Me to Want You)
TTITLE11=Blue Moon of Kentucky
TTITLE12=Always
TTITLE13=He Called Me Baby
TTITLE14=Crazy Arms
TTITLE15=Sweet Dreams (of You)
EXTD=
EXTT0=
EXTT1=
EXTT2=
EXTT3=
EXTT4=
EXTT5=
EXTT6=
EXTT7=
EXTT8=
EXTT9=
EXTT10=
EXTT11=
EXTT12=
EXTT13=
EXTT14=
EXTT15=
PLAYORDER=
